# xmcd
#
# Track frame offsets:
#	150
#	12047
#	25742
#	39247
#	51543
#	66085
#	79382
#	89122
#	103524
#	112912
#
# Disc length: 1631 seconds
#
# Revision: 0
# Processed by: cddbd v1.5.1PL0 Copyright (c) Steve Scherf et al.
# Submitted via: audiograbber 1.83.01
#
DISCID=7a065d0a
DTITLE=Boxcar Willie - Boxcar Willie Sings Hank Williams and Jimmie Rodgers
DYEAR=1900
DGENRE=Country
TTITLE0=Pan American
TTITLE1=Lonesome Whistle
TTITLE2=Ramblin' man
TTITLE3=I can't help ut
TTITLE4=I'm sl lonesome I could Cry
TTITLE5=T for Texas
TTITLE6=Waitin' for a Train
TTITLE7=Hobo's meditation
TTITLE8=Hobo Bill
TTITLE9=T B Blues
EXTD=
EXTT0=
EXTT1=
EXTT2=
EXTT3=
EXTT4=
EXTT5=
EXTT6=
EXTT7=
EXTT8=
EXTT9=
PLAYORDER=
